<?xml version="1.0" encoding="UTF-8" standalone="no"?>
<!DOCTYPE svg PUBLIC "-//W3C//DTD SVG 1.1//EN" "http://www.w3.org/Graphics/SVG/1.1/DTD/svg11.dtd">
<svg width="100%" height="100%" viewBox="0 0 128 128" version="1.1" xmlns="http://www.w3.org/2000/svg" xmlns:xlink="http://www.w3.org/1999/xlink" xml:space="preserve" xmlns:serif="http://www.serif.com/" style="fill-rule:evenodd;clip-rule:evenodd;stroke-linejoin:round;stroke-miterlimit:1.41421;">
    <g id="background" transform="matrix(1,0,0,1,1,-1.44329e-14)">
        <circle cx="63" cy="64" r="63" style="fill:rgb(38,57,77);"/>
        <path d="M63.407,1.001L63.814,1.005L64.22,1.012L64.625,1.021L65.03,1.032L65.434,1.046L65.837,1.063L66.24,1.082L66.642,1.104L67.043,1.128L67.444,1.155L67.844,1.184L68.244,1.216L68.642,1.25L69.04,1.286L69.438,1.326L69.834,1.367L70.23,1.411L70.625,1.458L71.019,1.507L71.413,1.558L71.806,1.612L72.198,1.668L72.589,1.726L72.979,1.787L73.369,1.851L73.758,1.917L74.146,1.985L74.533,2.055L74.92,2.128L75.305,2.203L75.69,2.281L76.074,2.361L76.457,2.443L76.839,2.528L77.22,2.614L77.601,2.704L77.98,2.795L78.359,2.889L78.737,2.985L79.114,3.083L79.49,3.184L79.865,3.287L80.239,3.392L80.612,3.499L80.984,3.609L81.355,3.72L81.726,3.834L82.095,3.951L82.463,4.069L82.831,4.19L83.197,4.312L83.562,4.437L83.927,4.565L84.29,4.694L84.652,4.825L85.013,4.959L85.374,5.095L85.733,5.233L86.091,5.373L86.448,5.515L86.804,5.659L87.159,5.806L87.513,5.954L87.865,6.105L88.217,6.257L88.567,6.412L88.917,6.569L89.265,6.728L89.612,6.889L89.958,7.051L90.303,7.216L90.647,7.383L90.989,7.552L91.33,7.723L91.671,7.896L92.01,8.072L92.347,8.249L92.684,8.427L93.019,8.608L93.353,8.791L93.686,8.976L94.018,9.163L94.348,9.352L94.678,9.543L95.005,9.735L95.332,9.93L95.657,10.126L95.982,10.324L96.304,10.525L96.626,10.727L96.946,10.931L97.265,11.137L97.583,11.345L97.899,11.554L98.214,11.766L98.527,11.979L98.839,12.194L99.15,12.411L99.46,12.63L99.768,12.85L100.075,13.073L100.38,13.297L100.684,13.523L100.986,13.75L101.288,13.98L101.587,14.211L101.886,14.444L102.182,14.679L102.478,14.915L102.772,15.154L103.064,15.394L103.355,15.635L103.645,15.879L103.933,16.124L104.219,16.371L104.504,16.619L104.788,16.869L105.07,17.121L105.351,17.374L105.63,17.63L105.907,17.886L106.183,18.145L106.457,18.405L106.73,18.666L107.001,18.93L107.271,19.195L107.539,19.461L107.805,19.729L108.07,19.999L108.334,20.27L108.595,20.543L108.855,20.817L109.114,21.093L109.37,21.37L109.626,21.649L109.879,21.93L110.131,22.212L110.381,22.496L110.629,22.781L110.876,23.067L111.121,23.355L111.365,23.645L111.606,23.936L111.846,24.228L112.085,24.522L112.321,24.818L112.556,25.114L112.789,25.413L113.02,25.712L113.25,26.014L113.477,26.316L113.703,26.62L113.927,26.925L114.15,27.232L114.37,27.54L114.589,27.85L114.806,28.161L115.021,28.473L115.234,28.786L115.446,29.101L115.655,29.417L115.863,29.735L116.069,30.054L116.273,30.374L116.475,30.696L116.676,31.018L116.874,31.343L117.07,31.668L117.265,31.995L117.457,32.322L117.648,32.652L117.837,32.982L118.024,33.314L118.209,33.647L118.392,33.981L118.573,34.316L118.751,34.653L118.928,34.99L119.104,35.329L119.277,35.67L119.448,36.011L119.617,36.353L119.784,36.697L119.949,37.042L120.111,37.388L120.272,37.735L120.431,38.083L120.588,38.433L120.743,38.783L120.895,39.135L121.046,39.487L121.194,39.841L121.341,40.196L121.485,40.552L121.627,40.909L121.767,41.267L121.905,41.626L122.041,41.987L122.175,42.348L122.306,42.71L122.435,43.073L122.563,43.438L122.688,43.803L122.81,44.169L122.931,44.537L123.049,44.905L123.166,45.274L123.28,45.645L123.391,46.016L123.501,46.388L123.608,46.761L123.713,47.135L123.816,47.51L123.917,47.886L124.015,48.263L124.111,48.641L124.205,49.02L124.296,49.399L124.386,49.78L124.472,50.161L124.557,50.543L124.639,50.926L124.719,51.31L124.797,51.695L124.872,52.08L124.945,52.467L125.015,52.854L125.083,53.242L125.149,53.631L125.213,54.021L125.274,54.411L125.332,54.802L125.388,55.194L125.442,55.587L125.493,55.981L125.542,56.375L125.589,56.77L125.633,57.166L125.674,57.562L125.714,57.96L125.75,58.358L125.784,58.756L125.816,59.156L125.845,59.556L125.872,59.957L125.896,60.358L125.918,60.76L125.937,61.163L125.954,61.566L125.968,61.97L125.979,62.375L125.988,62.78L125.995,63.186L125.999,63.593L126,64L125.999,64.407L125.995,64.814L125.988,65.22L125.979,65.625L125.968,66.03L125.954,66.434L125.937,66.837L125.918,67.24L125.896,67.642L125.872,68.043L125.845,68.444L125.816,68.844L125.784,69.244L125.75,69.642L125.714,70.04L125.674,70.438L125.633,70.834L125.589,71.23L125.542,71.625L125.493,72.019L125.442,72.413L125.388,72.806L125.332,73.198L125.274,73.589L125.213,73.979L125.149,74.369L125.083,74.758L125.015,75.146L124.945,75.533L124.872,75.92L124.797,76.305L124.719,76.69L124.639,77.074L124.557,77.457L124.472,77.839L124.386,78.22L124.296,78.601L124.205,78.98L124.111,79.359L124.015,79.737L123.917,80.114L123.816,80.49L123.713,80.865L123.608,81.239L123.501,81.612L123.391,81.984L123.28,82.355L123.166,82.726L123.049,83.095L122.931,83.463L122.81,83.831L122.688,84.197L122.563,84.562L122.435,84.927L122.306,85.29L122.175,85.652L122.041,86.013L121.905,86.374L121.767,86.733L121.627,87.091L121.485,87.448L121.341,87.804L121.194,88.159L121.046,88.513L120.895,88.865L120.743,89.217L120.588,89.567L120.431,89.917L120.272,90.265L120.111,90.612L119.949,90.958L119.784,91.303L119.617,91.647L119.448,91.989L119.277,92.33L119.104,92.671L118.928,93.01L118.751,93.347L118.573,93.684L118.392,94.019L118.209,94.353L118.024,94.686L117.837,95.018L117.648,95.348L117.457,95.678L117.265,96.005L117.07,96.332L116.874,96.657L116.676,96.982L116.475,97.304L116.273,97.626L116.069,97.946L115.863,98.265L115.655,98.583L115.446,98.899L115.234,99.214L115.021,99.527L114.806,99.839L114.589,100.15L114.37,100.46L114.15,100.768L113.927,101.075L113.703,101.38L113.477,101.684L113.25,101.986L113.02,102.288L112.789,102.587L112.556,102.886L112.321,103.182L112.085,103.478L111.846,103.772L111.606,104.064L111.365,104.355L111.121,104.645L110.876,104.933L110.629,105.219L110.381,105.504L110.131,105.788L109.879,106.07L109.626,106.351L109.37,106.63L109.114,106.907L108.855,107.183L108.595,107.457L108.334,107.73L108.07,108.001L107.805,108.271L107.539,108.539L107.271,108.805L107.001,109.07L106.73,109.334L106.457,109.595L106.183,109.855L105.907,110.114L105.63,110.37L105.351,110.626L105.07,110.879L104.788,111.131L104.504,111.381L104.219,111.629L103.933,111.876L103.645,112.121L103.355,112.365L103.064,112.606L102.772,112.846L102.478,113.085L102.182,113.321L101.886,113.556L101.587,113.789L101.288,114.02L100.986,114.25L100.684,114.477L100.38,114.703L100.075,114.927L99.768,115.15L99.46,115.37L99.15,115.589L98.839,115.806L98.527,116.021L98.214,116.234L97.899,116.446L97.583,116.655L97.265,116.863L96.946,117.069L96.626,117.273L96.304,117.475L95.982,117.676L95.657,117.874L95.332,118.07L95.005,118.265L94.678,118.457L94.348,118.648L94.018,118.837L93.686,119.024L93.353,119.209L93.019,119.392L92.684,119.573L92.347,119.751L92.01,119.928L91.671,120.104L91.33,120.277L90.989,120.448L90.647,120.617L90.303,120.784L89.958,120.949L89.612,121.111L89.265,121.272L88.917,121.431L88.567,121.588L88.217,121.743L87.865,121.895L87.513,122.046L87.159,122.194L86.804,122.341L86.448,122.485L86.091,122.627L85.733,122.767L85.374,122.905L85.013,123.041L84.652,123.175L84.29,123.306L83.927,123.435L83.562,123.563L83.197,123.688L82.831,123.81L82.463,123.931L82.095,124.049L81.726,124.166L81.355,124.28L80.984,124.391L80.612,124.501L80.239,124.608L79.865,124.713L79.49,124.816L79.114,124.917L78.737,125.015L78.359,125.111L77.98,125.205L77.601,125.296L77.22,125.386L76.839,125.472L76.457,125.557L76.074,125.639L75.69,125.719L75.305,125.797L74.92,125.872L74.533,125.945L74.146,126.015L73.758,126.083L73.369,126.149L72.979,126.213L72.589,126.274L72.198,126.332L71.806,126.388L71.413,126.442L71.019,126.493L70.625,126.542L70.23,126.589L69.834,126.633L69.438,126.674L69.04,126.714L68.642,126.75L68.244,126.784L67.844,126.816L67.444,126.845L67.043,126.872L66.642,126.896L66.24,126.918L65.837,126.937L65.434,126.954L65.03,126.968L64.625,126.979L64.22,126.988L63.814,126.995L63.407,126.999L63,127L62.593,126.999L62.186,126.995L61.78,126.988L61.375,126.979L60.97,126.968L60.566,126.954L60.163,126.937L59.76,126.918L59.358,126.896L58.957,126.872L58.556,126.845L58.156,126.816L57.756,126.784L57.358,126.75L56.96,126.714L56.562,126.674L56.166,126.633L55.77,126.589L55.375,126.542L54.981,126.493L54.587,126.442L54.194,126.388L53.802,126.332L53.411,126.274L53.021,126.213L52.631,126.149L52.242,126.083L51.854,126.015L51.467,125.945L51.08,125.872L50.695,125.797L50.31,125.719L49.926,125.639L49.543,125.557L49.161,125.472L48.78,125.386L48.399,125.296L48.02,125.205L47.641,125.111L47.263,125.015L46.886,124.917L46.51,124.816L46.135,124.713L45.761,124.608L45.388,124.501L45.016,124.391L44.645,124.28L44.274,124.166L43.905,124.049L43.537,123.931L43.169,123.81L42.803,123.688L42.438,123.563L42.073,123.435L41.71,123.306L41.348,123.175L40.987,123.041L40.626,122.905L40.267,122.767L39.909,122.627L39.552,122.485L39.196,122.341L38.841,122.194L38.487,122.046L38.135,121.895L37.783,121.743L37.433,121.588L37.083,121.431L36.735,121.272L36.388,121.111L36.042,120.949L35.697,120.784L35.353,120.617L35.011,120.448L34.67,120.277L34.329,120.104L33.99,119.928L33.653,119.751L33.316,119.573L32.981,119.392L32.647,119.209L32.314,119.024L31.982,118.837L31.652,118.648L31.322,118.457L30.995,118.265L30.668,118.07L30.343,117.874L30.018,117.676L29.696,117.475L29.374,117.273L29.054,117.069L28.735,116.863L28.417,116.655L28.101,116.446L27.786,116.234L27.473,116.021L27.161,115.806L26.85,115.589L26.54,115.37L26.232,115.15L25.925,114.927L25.62,114.703L25.316,114.477L25.014,114.25L24.712,114.02L24.413,113.789L24.114,113.556L23.818,113.321L23.522,113.085L23.228,112.846L22.936,112.606L22.645,112.365L22.355,112.121L22.067,111.876L21.781,111.629L21.496,111.381L21.212,111.131L20.93,110.879L20.649,110.626L20.37,110.37L20.093,110.114L19.817,109.855L19.543,109.595L19.27,109.334L18.999,109.07L18.729,108.805L18.461,108.539L18.195,108.271L17.93,108.001L17.666,107.73L17.405,107.457L17.145,107.183L16.886,106.907L16.63,106.63L16.374,106.351L16.121,106.07L15.869,105.788L15.619,105.504L15.371,105.219L15.124,104.933L14.879,104.645L14.635,104.355L14.394,104.064L14.154,103.772L13.915,103.478L13.679,103.182L13.444,102.886L13.211,102.587L12.98,102.288L12.75,101.986L12.523,101.684L12.297,101.38L12.073,101.075L11.85,100.768L11.63,100.46L11.411,100.15L11.194,99.839L10.979,99.527L10.766,99.214L10.554,98.899L10.345,98.583L10.137,98.265L9.931,97.946L9.727,97.626L9.525,97.304L9.324,96.982L9.126,96.657L8.93,96.332L8.735,96.005L8.543,95.678L8.352,95.348L8.163,95.018L7.976,94.686L7.791,94.353L7.608,94.019L7.427,93.684L7.249,93.347L7.072,93.01L6.896,92.671L6.723,92.33L6.552,91.989L6.383,91.647L6.216,91.303L6.051,90.958L5.889,90.612L5.728,90.265L5.569,89.917L5.412,89.567L5.257,89.217L5.105,88.865L4.954,88.513L4.806,88.159L4.659,87.804L4.515,87.448L4.373,87.091L4.233,86.733L4.095,86.374L3.959,86.013L3.825,85.652L3.694,85.29L3.565,84.927L3.437,84.562L3.312,84.197L3.19,83.831L3.069,83.463L2.951,83.095L2.834,82.726L2.72,82.355L2.609,81.984L2.499,81.612L2.392,81.239L2.287,80.865L2.184,80.49L2.083,80.114L1.985,79.737L1.889,79.359L1.795,78.98L1.704,78.601L1.614,78.22L1.528,77.839L1.443,77.457L1.361,77.074L1.281,76.69L1.203,76.305L1.128,75.92L1.055,75.533L0.985,75.146L0.917,74.758L0.851,74.369L0.787,73.979L0.726,73.589L0.668,73.198L0.612,72.806L0.558,72.413L0.507,72.019L0.458,71.625L0.411,71.23L0.367,70.834L0.326,70.438L0.286,70.04L0.25,69.642L0.216,69.244L0.184,68.844L0.155,68.444L0.128,68.043L0.104,67.642L0.082,67.24L0.063,66.837L0.046,66.434L0.032,66.03L0.021,65.625L0.012,65.22L0.005,64.814L0.001,64.407L0,64L0.001,63.593L0.005,63.186L0.012,62.78L0.021,62.375L0.032,61.97L0.046,61.566L0.063,61.163L0.082,60.76L0.104,60.358L0.128,59.957L0.155,59.556L0.184,59.156L0.216,58.756L0.25,58.358L0.286,57.96L0.326,57.562L0.367,57.166L0.411,56.77L0.458,56.375L0.507,55.981L0.558,55.587L0.612,55.194L0.668,54.802L0.726,54.411L0.787,54.021L0.851,53.631L0.917,53.242L0.985,52.854L1.055,52.467L1.128,52.08L1.203,51.695L1.281,51.31L1.361,50.926L1.443,50.543L1.528,50.161L1.614,49.78L1.704,49.399L1.795,49.02L1.889,48.641L1.985,48.263L2.083,47.886L2.184,47.51L2.287,47.135L2.392,46.761L2.499,46.388L2.609,46.016L2.72,45.645L2.834,45.274L2.951,44.905L3.069,44.537L3.19,44.169L3.312,43.803L3.437,43.438L3.565,43.073L3.694,42.71L3.825,42.348L3.959,41.987L4.095,41.626L4.233,41.267L4.373,40.909L4.515,40.552L4.659,40.196L4.806,39.841L4.954,39.487L5.105,39.135L5.257,38.783L5.412,38.433L5.569,38.083L5.728,37.735L5.889,37.388L6.051,37.042L6.216,36.697L6.383,36.353L6.552,36.011L6.723,35.67L6.896,35.329L7.072,34.99L7.249,34.653L7.427,34.316L7.608,33.981L7.791,33.647L7.976,33.314L8.163,32.982L8.352,32.652L8.543,32.322L8.735,31.995L8.93,31.668L9.126,31.343L9.324,31.018L9.525,30.696L9.727,30.374L9.931,30.054L10.137,29.735L10.345,29.417L10.554,29.101L10.766,28.786L10.979,28.473L11.194,28.161L11.411,27.85L11.63,27.54L11.85,27.232L12.073,26.925L12.297,26.62L12.523,26.316L12.75,26.014L12.98,25.712L13.211,25.413L13.444,25.114L13.679,24.818L13.915,24.522L14.154,24.228L14.394,23.936L14.635,23.645L14.879,23.355L15.124,23.067L15.371,22.781L15.619,22.496L15.869,22.212L16.121,21.93L16.374,21.649L16.63,21.37L16.886,21.093L17.145,20.817L17.405,20.543L17.666,20.27L17.93,19.999L18.195,19.729L18.461,19.461L18.729,19.195L18.999,18.93L19.27,18.666L19.543,18.405L19.817,18.145L20.093,17.886L20.37,17.63L20.649,17.374L20.93,17.121L21.212,16.869L21.496,16.619L21.781,16.371L22.067,16.124L22.355,15.879L22.645,15.635L22.936,15.394L23.228,15.154L23.522,14.915L23.818,14.679L24.114,14.444L24.413,14.211L24.712,13.98L25.014,13.75L25.316,13.523L25.62,13.297L25.925,13.073L26.232,12.85L26.54,12.63L26.85,12.411L27.161,12.194L27.473,11.979L27.786,11.766L28.101,11.554L28.417,11.345L28.735,11.137L29.054,10.931L29.374,10.727L29.696,10.525L30.018,10.324L30.343,10.126L30.668,9.93L30.995,9.735L31.322,9.543L31.652,9.352L31.982,9.163L32.314,8.976L32.647,8.791L32.981,8.608L33.316,8.427L33.653,8.249L33.99,8.072L34.329,7.896L34.67,7.723L35.011,7.552L35.353,7.383L35.697,7.216L36.042,7.051L36.388,6.889L36.735,6.728L37.083,6.569L37.433,6.412L37.783,6.257L38.135,6.105L38.487,5.954L38.841,5.806L39.196,5.659L39.552,5.515L39.909,5.373L40.267,5.233L40.626,5.095L40.987,4.959L41.348,4.825L41.71,4.694L42.073,4.565L42.438,4.437L42.803,4.312L43.169,4.19L43.537,4.069L43.905,3.951L44.274,3.834L44.645,3.72L45.016,3.609L45.388,3.499L45.761,3.392L46.135,3.287L46.51,3.184L46.886,3.083L47.263,2.985L47.641,2.889L48.02,2.795L48.399,2.704L48.78,2.614L49.161,2.528L49.543,2.443L49.926,2.361L50.31,2.281L50.695,2.203L51.08,2.128L51.467,2.055L51.854,1.985L52.242,1.917L52.631,1.851L53.021,1.787L53.411,1.726L53.802,1.668L54.194,1.612L54.587,1.558L54.981,1.507L55.375,1.458L55.77,1.411L56.166,1.367L56.562,1.326L56.96,1.286L57.358,1.25L57.756,1.216L58.156,1.184L58.556,1.155L58.957,1.128L59.358,1.104L59.76,1.082L60.163,1.063L60.566,1.046L60.97,1.032L61.375,1.021L61.78,1.012L62.186,1.005L62.593,1.001L63,1L63.407,1.001ZM62.619,5.168L62.239,5.172L61.86,5.178L61.481,5.186L61.102,5.197L60.725,5.21L60.348,5.225L59.971,5.243L59.596,5.264L59.22,5.286L58.846,5.311L58.472,5.338L58.099,5.368L57.727,5.4L57.355,5.434L56.984,5.471L56.614,5.51L56.244,5.551L55.875,5.594L55.507,5.64L55.139,5.688L54.773,5.738L54.406,5.791L54.041,5.845L53.677,5.902L53.313,5.961L52.95,6.023L52.588,6.086L52.226,6.152L51.865,6.22L51.505,6.29L51.146,6.363L50.788,6.437L50.43,6.514L50.074,6.593L49.718,6.674L49.363,6.757L49.008,6.843L48.655,6.93L48.302,7.02L47.951,7.112L47.6,7.205L47.25,7.301L46.901,7.4L46.552,7.5L46.205,7.602L45.858,7.706L45.513,7.813L45.168,7.921L44.824,8.032L44.482,8.144L44.14,8.259L43.799,8.376L43.459,8.494L43.12,8.615L42.781,8.738L42.444,8.862L42.108,8.989L41.773,9.118L41.439,9.249L41.105,9.381L40.773,9.516L40.442,9.653L40.112,9.791L39.782,9.932L39.454,10.074L39.127,10.219L38.801,10.365L38.476,10.513L38.152,10.664L37.829,10.816L37.507,10.97L37.186,11.126L36.866,11.283L36.547,11.443L36.23,11.605L35.913,11.768L35.598,11.933L35.284,12.1L34.971,12.269L34.659,12.44L34.348,12.613L34.038,12.787L33.729,12.963L33.422,13.142L33.116,13.321L32.811,13.503L32.507,13.687L32.204,13.872L31.903,14.059L31.602,14.248L31.303,14.438L31.006,14.63L30.709,14.825L30.414,15.02L30.119,15.218L29.827,15.417L29.535,15.618L29.245,15.821L28.955,16.025L28.668,16.231L28.381,16.439L28.096,16.648L27.812,16.859L27.529,17.072L27.248,17.286L26.968,17.502L26.689,17.72L26.412,17.939L26.136,18.16L25.861,18.383L25.588,18.607L25.316,18.833L25.046,19.06L24.777,19.289L24.509,19.52L24.243,19.752L23.978,19.986L23.714,20.221L23.452,20.458L23.191,20.696L22.932,20.936L22.674,21.177L22.418,21.42L22.163,21.665L21.91,21.911L21.658,22.158L21.407,22.407L21.158,22.658L20.911,22.91L20.665,23.163L20.42,23.418L20.177,23.674L19.936,23.932L19.696,24.191L19.458,24.452L19.221,24.714L18.986,24.978L18.752,25.243L18.52,25.509L18.289,25.777L18.06,26.046L17.833,26.316L17.607,26.588L17.383,26.861L17.16,27.136L16.939,27.412L16.72,27.689L16.502,27.968L16.286,28.248L16.072,28.529L15.859,28.812L15.648,29.096L15.439,29.381L15.231,29.668L15.025,29.955L14.821,30.245L14.618,30.535L14.417,30.827L14.218,31.119L14.02,31.414L13.825,31.709L13.63,32.006L13.438,32.303L13.248,32.602L13.059,32.903L12.872,33.204L12.687,33.507L12.503,33.811L12.321,34.116L12.142,34.422L11.963,34.729L11.787,35.038L11.613,35.348L11.44,35.659L11.269,35.971L11.1,36.284L10.933,36.598L10.768,36.913L10.605,37.23L10.443,37.547L10.283,37.866L10.126,38.186L9.97,38.507L9.816,38.829L9.664,39.152L9.513,39.476L9.365,39.801L9.219,40.127L9.074,40.454L8.932,40.782L8.791,41.112L8.653,41.442L8.516,41.773L8.381,42.105L8.249,42.439L8.118,42.773L7.989,43.108L7.862,43.444L7.738,43.781L7.615,44.12L7.494,44.459L7.376,44.799L7.259,45.14L7.144,45.482L7.032,45.824L6.921,46.168L6.813,46.513L6.706,46.858L6.602,47.205L6.5,47.552L6.4,47.901L6.301,48.25L6.205,48.6L6.112,48.951L6.02,49.302L5.93,49.655L5.843,50.008L5.757,50.363L5.674,50.718L5.593,51.074L5.514,51.43L5.437,51.788L5.363,52.146L5.29,52.505L5.22,52.865L5.152,53.226L5.086,53.588L5.023,53.95L4.961,54.313L4.902,54.677L4.845,55.041L4.791,55.406L4.738,55.773L4.688,56.139L4.64,56.507L4.594,56.875L4.551,57.244L4.51,57.614L4.471,57.984L4.434,58.355L4.4,58.727L4.368,59.099L4.338,59.472L4.311,59.846L4.286,60.22L4.264,60.596L4.243,60.971L4.225,61.348L4.21,61.725L4.197,62.102L4.186,62.481L4.178,62.86L4.172,63.239L4.168,63.619L4.167,64L4.168,64.381L4.172,64.761L4.178,65.14L4.186,65.519L4.197,65.898L4.21,66.275L4.225,66.652L4.243,67.029L4.264,67.404L4.286,67.78L4.311,68.154L4.338,68.528L4.368,68.901L4.4,69.273L4.434,69.645L4.471,70.016L4.51,70.386L4.551,70.756L4.594,71.125L4.64,71.493L4.688,71.861L4.738,72.227L4.791,72.594L4.845,72.959L4.902,73.323L4.961,73.687L5.023,74.05L5.086,74.412L5.152,74.774L5.22,75.135L5.29,75.495L5.363,75.854L5.437,76.212L5.514,76.57L5.593,76.926L5.674,77.282L5.757,77.637L5.843,77.992L5.93,78.345L6.02,78.698L6.112,79.049L6.205,79.4L6.301,79.75L6.4,80.099L6.5,80.448L6.602,80.795L6.706,81.142L6.813,81.487L6.921,81.832L7.032,82.176L7.144,82.518L7.259,82.86L7.376,83.201L7.494,83.541L7.615,83.88L7.738,84.219L7.862,84.556L7.989,84.892L8.118,85.227L8.249,85.561L8.381,85.895L8.516,86.227L8.653,86.558L8.791,86.888L8.932,87.218L9.074,87.546L9.219,87.873L9.365,88.199L9.513,88.524L9.664,88.848L9.816,89.171L9.97,89.493L10.126,89.814L10.283,90.134L10.443,90.453L10.605,90.77L10.768,91.087L10.933,91.402L11.1,91.716L11.269,92.029L11.44,92.341L11.613,92.652L11.787,92.962L11.964,93.271L12.142,93.578L12.321,93.884L12.503,94.189L12.687,94.493L12.872,94.796L13.059,95.097L13.248,95.398L13.438,95.697L13.63,95.994L13.825,96.291L14.02,96.586L14.218,96.881L14.417,97.173L14.618,97.465L14.821,97.755L15.025,98.045L15.231,98.332L15.439,98.619L15.648,98.904L15.859,99.188L16.072,99.471L16.286,99.752L16.502,100.032L16.72,100.311L16.939,100.588L17.16,100.864L17.383,101.139L17.607,101.412L17.833,101.684L18.06,101.954L18.289,102.223L18.52,102.491L18.752,102.757L18.986,103.022L19.221,103.286L19.458,103.548L19.696,103.809L19.936,104.068L20.177,104.326L20.42,104.582L20.665,104.837L20.911,105.09L21.158,105.342L21.407,105.593L21.658,105.842L21.91,106.089L22.163,106.335L22.418,106.58L22.674,106.823L22.932,107.064L23.191,107.304L23.452,107.542L23.714,107.779L23.978,108.014L24.243,108.248L24.509,108.48L24.777,108.711L25.046,108.94L25.316,109.167L25.588,109.393L25.861,109.617L26.136,109.84L26.412,110.061L26.689,110.28L26.968,110.498L27.248,110.714L27.529,110.928L27.812,111.141L28.096,111.352L28.381,111.561L28.668,111.769L28.955,111.975L29.245,112.179L29.535,112.382L29.827,112.583L30.119,112.782L30.414,112.98L30.709,113.176L31.006,113.37L31.303,113.562L31.602,113.752L31.903,113.941L32.204,114.128L32.507,114.313L32.811,114.497L33.116,114.679L33.422,114.858L33.729,115.037L34.038,115.213L34.348,115.387L34.659,115.56L34.971,115.731L35.284,115.9L35.598,116.067L35.913,116.232L36.23,116.395L36.547,116.557L36.866,116.717L37.186,116.874L37.507,117.03L37.829,117.184L38.152,117.336L38.476,117.487L38.801,117.635L39.127,117.781L39.454,117.926L39.782,118.068L40.112,118.209L40.442,118.347L40.773,118.484L41.105,118.619L41.439,118.751L41.773,118.882L42.108,119.011L42.444,119.138L42.781,119.262L43.12,119.385L43.459,119.506L43.799,119.624L44.14,119.741L44.482,119.856L44.824,119.968L45.168,120.079L45.513,120.187L45.858,120.294L46.205,120.398L46.552,120.5L46.901,120.6L47.25,120.699L47.6,120.795L47.951,120.888L48.302,120.98L48.655,121.07L49.008,121.157L49.363,121.243L49.718,121.326L50.074,121.407L50.43,121.486L50.788,121.563L51.146,121.637L51.505,121.71L51.865,121.78L52.226,121.848L52.588,121.914L52.95,121.977L53.313,122.039L53.677,122.098L54.041,122.155L54.406,122.209L54.773,122.262L55.139,122.312L55.507,122.36L55.875,122.406L56.244,122.449L56.614,122.49L56.984,122.529L57.355,122.566L57.727,122.6L58.099,122.632L58.472,122.662L58.846,122.689L59.221,122.714L59.596,122.736L59.971,122.757L60.348,122.775L60.725,122.79L61.102,122.803L61.481,122.814L61.86,122.822L62.239,122.828L62.619,122.832L63,122.833L63.381,122.832L63.761,122.828L64.14,122.822L64.519,122.814L64.898,122.803L65.275,122.79L65.652,122.775L66.029,122.757L66.404,122.736L66.78,122.714L67.154,122.689L67.528,122.662L67.901,122.632L68.273,122.6L68.645,122.566L69.016,122.529L69.386,122.49L69.756,122.449L70.125,122.406L70.493,122.36L70.861,122.312L71.228,122.262L71.594,122.209L71.959,122.155L72.323,122.098L72.687,122.039L73.05,121.977L73.412,121.914L73.774,121.848L74.135,121.78L74.495,121.71L74.854,121.637L75.212,121.563L75.57,121.486L75.926,121.407L76.282,121.326L76.637,121.243L76.992,121.157L77.345,121.07L77.698,120.98L78.049,120.888L78.4,120.795L78.75,120.699L79.099,120.6L79.448,120.5L79.795,120.398L80.142,120.294L80.487,120.187L80.832,120.079L81.176,119.968L81.518,119.856L81.86,119.741L82.201,119.624L82.541,119.506L82.88,119.385L83.219,119.262L83.556,119.138L83.892,119.011L84.227,118.882L84.561,118.751L84.895,118.619L85.227,118.484L85.558,118.347L85.888,118.209L86.218,118.068L86.546,117.926L86.873,117.781L87.199,117.635L87.524,117.487L87.848,117.336L88.171,117.184L88.493,117.03L88.814,116.874L89.134,116.717L89.453,116.557L89.77,116.395L90.087,116.232L90.402,116.067L90.716,115.9L91.029,115.731L91.341,115.56L91.652,115.387L91.962,115.213L92.271,115.037L92.578,114.858L92.884,114.679L93.189,114.497L93.493,114.313L93.796,114.128L94.097,113.941L94.398,113.752L94.697,113.562L94.994,113.37L95.291,113.176L95.586,112.98L95.881,112.782L96.173,112.583L96.465,112.382L96.755,112.179L97.045,111.975L97.332,111.769L97.619,111.561L97.904,111.352L98.188,111.141L98.471,110.928L98.752,110.714L99.032,110.498L99.311,110.28L99.588,110.061L99.864,109.84L100.139,109.617L100.412,109.393L100.684,109.167L100.954,108.94L101.223,108.711L101.491,108.48L101.757,108.248L102.022,108.014L102.286,107.779L102.548,107.542L102.809,107.304L103.068,107.064L103.326,106.823L103.582,106.58L103.837,106.335L104.09,106.089L104.342,105.842L104.593,105.593L104.842,105.342L105.089,105.09L105.335,104.837L105.58,104.582L105.823,104.326L106.064,104.068L106.304,103.809L106.542,103.548L106.779,103.286L107.014,103.022L107.248,102.757L107.48,102.491L107.711,102.223L107.94,101.954L108.167,101.684L108.393,101.412L108.617,101.139L108.84,100.864L109.061,100.588L109.28,100.311L109.498,100.032L109.714,99.752L109.928,99.471L110.141,99.188L110.352,98.904L110.561,98.619L110.769,98.332L110.975,98.045L111.179,97.755L111.382,97.465L111.583,97.173L111.782,96.881L111.98,96.586L112.176,96.291L112.37,95.994L112.562,95.697L112.752,95.398L112.941,95.097L113.128,94.796L113.313,94.493L113.497,94.189L113.679,93.884L113.858,93.578L114.037,93.271L114.213,92.962L114.387,92.652L114.56,92.341L114.731,92.029L114.9,91.716L115.067,91.402L115.232,91.087L115.395,90.77L115.557,90.453L115.717,90.134L115.874,89.814L116.03,89.493L116.184,89.171L116.336,88.848L116.487,88.524L116.635,88.199L116.781,87.873L116.926,87.546L117.068,87.218L117.209,86.888L117.347,86.558L117.484,86.227L117.619,85.895L117.751,85.561L117.882,85.227L118.011,84.892L118.138,84.556L118.262,84.219L118.385,83.88L118.506,83.541L118.624,83.201L118.741,82.86L118.856,82.518L118.968,82.176L119.079,81.832L119.187,81.487L119.294,81.142L119.398,80.795L119.5,80.448L119.6,80.099L119.699,79.75L119.795,79.4L119.888,79.049L119.98,78.698L120.07,78.345L120.157,77.992L120.243,77.637L120.326,77.282L120.407,76.926L120.486,76.57L120.563,76.212L120.637,75.854L120.71,75.495L120.78,75.135L120.848,74.774L120.914,74.412L120.977,74.05L121.039,73.687L121.098,73.323L121.155,72.959L121.209,72.594L121.262,72.228L121.312,71.861L121.36,71.493L121.406,71.125L121.449,70.756L121.49,70.386L121.529,70.016L121.566,69.645L121.6,69.273L121.632,68.901L121.662,68.528L121.689,68.154L121.714,67.78L121.736,67.404L121.757,67.029L121.775,66.652L121.79,66.275L121.803,65.898L121.814,65.519L121.822,65.14L121.828,64.761L121.832,64.381L121.833,64L121.832,63.619L121.828,63.239L121.822,62.86L121.814,62.481L121.803,62.102L121.79,61.725L121.775,61.348L121.757,60.971L121.736,60.596L121.714,60.221L121.689,59.846L121.662,59.472L121.632,59.099L121.6,58.727L121.566,58.355L121.529,57.984L121.49,57.614L121.449,57.244L121.406,56.875L121.36,56.507L121.312,56.139L121.262,55.773L121.209,55.406L121.155,55.041L121.098,54.677L121.039,54.313L120.977,53.95L120.914,53.588L120.848,53.226L120.78,52.865L120.71,52.505L120.637,52.146L120.563,51.788L120.486,51.43L120.407,51.074L120.326,50.718L120.243,50.363L120.157,50.008L120.07,49.655L119.98,49.302L119.888,48.951L119.795,48.6L119.699,48.25L119.6,47.901L119.5,47.552L119.398,47.205L119.294,46.858L119.187,46.513L119.079,46.168L118.968,45.824L118.856,45.482L118.741,45.14L118.624,44.799L118.506,44.459L118.385,44.12L118.262,43.781L118.138,43.444L118.011,43.108L117.882,42.773L117.751,42.439L117.619,42.105L117.484,41.773L117.347,41.442L117.209,41.112L117.068,40.782L116.926,40.454L116.781,40.127L116.635,39.801L116.487,39.476L116.336,39.152L116.184,38.829L116.03,38.507L115.874,38.186L115.717,37.866L115.557,37.547L115.395,37.23L115.232,36.913L115.067,36.598L114.9,36.284L114.731,35.971L114.56,35.659L114.387,35.348L114.213,35.038L114.037,34.729L113.858,34.422L113.679,34.116L113.497,33.811L113.313,33.507L113.128,33.204L112.941,32.903L112.752,32.602L112.562,32.303L112.37,32.006L112.176,31.709L111.98,31.414L111.782,31.119L111.583,30.827L111.382,30.535L111.179,30.245L110.975,29.955L110.769,29.668L110.561,29.381L110.352,29.096L110.141,28.812L109.928,28.529L109.714,28.248L109.498,27.968L109.28,27.689L109.061,27.412L108.84,27.136L108.617,26.861L108.393,26.588L108.167,26.316L107.94,26.046L107.711,25.777L107.48,25.509L107.248,25.243L107.014,24.978L106.779,24.714L106.542,24.452L106.304,24.191L106.064,23.932L105.823,23.674L105.58,23.418L105.335,23.163L105.089,22.91L104.842,22.658L104.593,22.407L104.342,22.158L104.09,21.911L103.837,21.665L103.582,21.42L103.326,21.177L103.068,20.936L102.809,20.696L102.548,20.458L102.286,20.221L102.022,19.986L101.757,19.752L101.491,19.52L101.223,19.289L100.954,19.06L100.684,18.833L100.412,18.607L100.139,18.383L99.864,18.16L99.588,17.939L99.311,17.72L99.032,17.502L98.752,17.286L98.471,17.072L98.188,16.859L97.904,16.648L97.619,16.439L97.332,16.231L97.045,16.025L96.755,15.821L96.465,15.618L96.173,15.417L95.881,15.218L95.586,15.02L95.291,14.825L94.994,14.63L94.697,14.438L94.398,14.248L94.097,14.059L93.796,13.872L93.493,13.687L93.189,13.503L92.884,13.321L92.578,13.142L92.271,12.964L91.962,12.787L91.652,12.613L91.341,12.44L91.029,12.269L90.716,12.1L90.402,11.933L90.087,11.768L89.77,11.605L89.453,11.443L89.134,11.283L88.814,11.126L88.493,10.97L88.171,10.816L87.848,10.664L87.524,10.513L87.199,10.365L86.873,10.219L86.546,10.074L86.218,9.932L85.888,9.791L85.558,9.653L85.227,9.516L84.895,9.381L84.561,9.249L84.227,9.118L83.892,8.989L83.556,8.862L83.219,8.738L82.88,8.615L82.541,8.494L82.201,8.376L81.86,8.259L81.518,8.144L81.176,8.032L80.832,7.921L80.487,7.813L80.142,7.706L79.795,7.602L79.448,7.5L79.099,7.4L78.75,7.301L78.4,7.205L78.049,7.112L77.698,7.02L77.345,6.93L76.992,6.843L76.637,6.757L76.282,6.674L75.926,6.593L75.57,6.514L75.212,6.437L74.854,6.363L74.495,6.29L74.135,6.22L73.774,6.152L73.412,6.086L73.05,6.023L72.687,5.961L72.323,5.902L71.959,5.845L71.594,5.791L71.227,5.738L70.861,5.688L70.493,5.64L70.125,5.594L69.756,5.551L69.386,5.51L69.016,5.471L68.645,5.434L68.273,5.4L67.901,5.368L67.528,5.338L67.154,5.311L66.78,5.286L66.404,5.264L66.029,5.243L65.652,5.225L65.275,5.21L64.898,5.197L64.519,5.186L64.14,5.178L63.761,5.172L63.381,5.168L63,5.167L62.619,5.168Z" style="fill:rgb(26,38,51);"/>
    </g>
    <g id="xi" transform="matrix(0.0601426,0,0,0.0601426,-64.5387,5.70477)">
        <path d="M2021.68,61.945L2021.68,98.999C1957.98,108.101 1926.12,136.054 1926.12,182.858C1926.12,233.565 1962.53,266.069 2035.34,280.369C2076.94,235.515 2126.02,196.024 2182.58,161.893C2239.13,127.766 2289.51,110.702 2333.72,110.7C2366.87,110.702 2383.45,125.653 2383.45,155.555C2383.45,195.211 2350.95,234.215 2285.94,272.568C2220.93,310.924 2143.25,330.751 2052.89,332.05C1999.58,386.007 1972.93,443.214 1972.93,503.669C1972.93,567.377 2004.13,619.708 2066.54,660.662C2160.15,609.307 2258.96,583.629 2362.97,583.628C2434.48,583.629 2470.23,601.506 2470.23,637.259C2470.23,661.313 2451.38,681.79 2413.68,698.691C2375.97,715.594 2321.69,724.045 2250.83,724.044C2191.68,724.045 2134.15,719.819 2078.24,711.368C1907.27,820.581 1821.79,944.419 1821.79,1082.88C1821.79,1143.99 1843.24,1194.7 1886.14,1235C1929.05,1275.31 1998.61,1295.46 2094.82,1295.46C2111.72,1295.46 2134.47,1294.48 2163.07,1292.53C2237.83,1286.68 2288.21,1283.76 2314.22,1283.76C2392.88,1283.76 2450.08,1309.11 2485.84,1359.82C2521.59,1410.52 2539.47,1473.9 2539.47,1549.96C2539.47,1656.57 2510.21,1737.67 2451.71,1793.25C2393.2,1848.83 2327.22,1876.62 2253.76,1876.62C2214.76,1876.62 2182.58,1868.66 2157.22,1852.73C2131.87,1836.81 2119.19,1815.19 2119.19,1787.89C2119.19,1768.39 2125.86,1752.78 2139.18,1741.08C2152.51,1729.38 2167.62,1723.53 2184.53,1723.53C2196.23,1723.53 2212.8,1727.11 2234.26,1734.26C2274.56,1747.26 2306.74,1753.76 2330.79,1753.76C2375,1753.76 2409.78,1738.48 2435.13,1707.93C2460.48,1677.38 2473.16,1639.02 2473.16,1592.87C2473.16,1560.36 2463.41,1531.6 2443.91,1506.57C2424.4,1481.54 2392.55,1469.03 2348.35,1469.03C2328.84,1469.03 2305.44,1469.68 2278.14,1470.98C2196.88,1475.53 2142.6,1477.8 2115.29,1477.8C1999.58,1477.8 1907.27,1444 1838.36,1376.39C1769.45,1308.79 1735,1222 1735,1116.04C1735,949.62 1826.66,810.179 2009.98,697.716C1943.67,645.061 1910.52,584.929 1910.52,517.321C1910.52,453.615 1938.47,390.233 1994.38,327.175C1901.42,303.773 1854.94,256.318 1854.94,184.809C1854.94,104.851 1910.52,63.896 2021.68,61.945Z" style="fill:rgb(230,172,115);fill-rule:nonzero;"/>
    </g>
</svg>
